<?xml version="1.0" standalone="no"?><!DOCTYPE svg PUBLIC "-//W3C//DTD SVG 1.1//EN" "http://www.w3.org/Graphics/SVG/1.1/DTD/svg11.dtd"><svg t="1621670136732" class="icon" viewBox="0 0 1024 1024" version="1.1" xmlns="http://www.w3.org/2000/svg" p-id="1066" xmlns:xlink="http://www.w3.org/1999/xlink" width="200" height="200"><defs><style type="text/css"></style></defs><path d="M794.5 511.7L280.7 215.1v593.3z" fill="#91B4FF" p-id="1067"></path><path d="M178.4 922.5c-4.4 0-8.8-1.1-12.8-3.4-7.9-4.6-12.8-13-12.8-22.1V678c0-14.1 11.4-25.6 25.6-25.6S204 663.9 204 678v174.7l590.5-340.9-590.5-341v284.7c0 14.1-11.4 25.6-25.6 25.6s-25.6-11.4-25.6-25.6v-329c0-9.1 4.9-17.6 12.8-22.1 7.9-4.6 17.7-4.6 25.6 0l667.2 385.2c7.9 4.6 12.8 13 12.8 22.1s-4.9 17.6-12.8 22.1L191.2 919.1c-3.9 2.2-8.3 3.4-12.8 3.4z" fill="#3778FF" p-id="1068"></path><path d="M178.4 611.4c-14.1 0-25.6-11.4-25.6-25.6V552c0-14.1 11.4-25.6 25.6-25.6S204 537.9 204 552v33.8c0 14.1-11.4 25.6-25.6 25.6z" fill="#3778FF" p-id="1069"></path></svg>