<svg width="84" height="84" xmlns="http://www.w3.org/2000/svg">
 <!-- Created with Method Draw - http://github.com/duopixel/Method-Draw/ -->

 <g>
  <title>background</title>
  <rect fill="#fff" id="canvas_background" height="86" width="86" y="-1" x="-1"/>
  <g display="none" overflow="visible" y="0" x="0" height="100%" width="100%" id="canvasGrid">
   <rect fill="url(#gridpattern)" stroke-width="0" y="0" x="0" height="100%" width="100%"/>
  </g>
 </g>
 <g>
  <title>Layer 1</title>
  <!-- Created with Method Draw - http://github.com/duopixel/Method-Draw/ -->
  <g stroke="null" id="svg_67">
   <g stroke="null" transform="matrix(0.595802590779353,0,0,0.5690548549011628,-2575.603481623692,-1696.3273858407474) " id="svg_64">
    <title stroke="null" transform="translate(-1.6784082651138306,1.757299780845642) translate(0,17.572998046875) translate(-88.95563507080078,-172.2153778076172) translate(-872.5679321289062,-601.8807983398438) translate(5197.52490234375,0) translate(0,3584.5) ">background</title>
    <rect stroke="null" x="4233.322927" y="2828.734122" width="582" height="402" id="svg_62" fill="#fff"/>
    <g stroke="null" id="svg_61" display="none">
     <rect stroke="null" id="svg_65" width="580" height="400" x="4234.322927" y="2829.734122" stroke-width="0" fill="url(#gridpattern)"/>
    </g>
   </g>
   <g stroke="null" transform="matrix(0.595802590779353,0,0,0.5690548549011628,-2575.603481623692,-1696.3273858407474) " id="svg_66">
    <title stroke="null" transform="translate(-1.6784082651138306,1.757299780845642) translate(0,17.572998046875) translate(-88.95563507080078,-172.2153778076172) translate(-872.5679321289062,-601.8807983398438) translate(5197.52490234375,0) translate(0,3584.5) ">Layer 1</title>
    <defs stroke="null" transform="translate(-1.6784082651138306,1.757299780845642) translate(0,17.572998046875) translate(-88.95563507080078,-172.2153778076172) translate(-872.5679321289062,-601.8807983398438) translate(5197.52490234375,0) translate(0,3584.5) ">
     <style stroke="null" type="text/css"/>
    </defs>
    <g stroke="null" id="svg_59">
     <path stroke="null" d="m4356.185017,3093.188412l72.27598,0l0,8.03067l-72.27598,0l0,-8.03067zm72.27598,8.03067l0,-8.03067a20.07666,20.07666 0 0 0 20.07666,-20.07666l8.03066,0a28.10732,28.10732 0 0 1 -28.10732,28.10733zm-72.27598,0a28.10732,28.10732 0 0 1 -28.10733,-28.10733l8.03067,0a20.07666,20.07666 0 0 0 20.07666,20.07666l0,8.03067zm100.3833,-28.10733l-8.03066,0a20.07666,20.07666 0 0 0 -15.0575,-19.3539l-3.0115,-0.72276l0,-4.01533a20.07666,20.07666 0 0 0 -20.07666,-20.07666a20.59865,20.59865 0 0 0 -4.65778,0.6023l-2.60997,0.64245l-1.56598,-2.20843a26.05951,26.05951 0 0 0 -47.38092,15.01734l0,10.03833l-3.0115,0.76291a20.07666,20.07666 0 0 0 -15.0575,19.31375l-8.03066,0a28.10732,28.10732 0 0 1 18.06899,-26.17997l0,-4.01533a34.09017,34.09017 0 0 1 60.22999,-21.7631a26.34058,26.34058 0 0 1 4.01533,-0.32123a28.10732,28.10732 0 0 1 28.10733,26.01936a28.10732,28.10732 0 0 1 18.06899,26.26027z" fill="#54C3F1" id="svg_60"/>
    </g>
    <defs stroke="null" transform="translate(-1.6784082651138306,1.757299780845642) translate(0,17.572998046875) translate(-88.95563507080078,-172.2153778076172) translate(-872.5679321289062,-601.8807983398438) translate(5197.52490234375,0) translate(0,3584.5) ">
     <style stroke="null" type="text/css"/>
    </defs>
    <g stroke="null" id="svg_45">
     <path stroke="null" d="m4450.208407,3022.680862l-54.07951,0c-2.14198,0 -3.87779,1.71016 -3.87779,3.82221l0,41.04382l61.83936,0l0,-41.04382c0,-2.11205 -1.74008,-3.82221 -3.88206,-3.82221zm-7.09289,34.60508c0,1.38523 -1.14153,2.50966 -2.54813,2.50966l-43.55348,0c-1.40661,0 -2.54814,-1.12443 -2.54814,-2.50966l0,-26.30653c0,-1.38523 1.14153,-2.50966 2.54814,-2.50966l43.55348,0c1.4066,0 2.54813,1.12443 2.54813,2.50966l0,26.30653z" fill="#FF9C52" id="svg_58"/>
     <path stroke="null" d="m4439.896147,3022.680862s6.33186,-0.11116 6.33186,5.78462l0,38.53416l3.493,0l0,-41.17636s-0.76102,-4.77989 -9.82486,-3.14242z" fill="#ED833B" id="svg_57"/>
     <path stroke="null" d="m4449.721017,3068.401972l-60.90733,0c-0.47029,0 -0.85508,-0.38478 -0.85508,-0.85508l0,-20.49626c0,-0.47029 0.38479,-0.85508 0.85508,-0.85508s0.85508,0.38479 0.85508,0.85508l0,19.64118l59.20144,0l0,-40.18874c0,-1.6332 -1.32965,-2.96713 -2.96713,-2.96713l-53.27146,0c-1.63747,0 -2.96712,1.32965 -2.96712,2.96713l0,5.48533c0,0.4703 -0.38479,0.85508 -0.85508,0.85508s-0.85508,-0.38478 -0.85508,-0.85508l0,-5.48533c0,-2.57807 2.09922,-4.67729 4.67728,-4.67729l53.27147,0c2.57806,0 4.67728,2.09922 4.67728,4.67729l0,41.04382c-0.00427,0.4703 -0.38478,0.85508 -0.85935,0.85508z" fill="#010101" id="svg_56"/>
     <path stroke="null" d="m4388.813687,3042.852192c-0.47029,0 -0.85508,-0.38479 -0.85508,-0.85508l0,-3.89489c0,-0.47029 0.38479,-0.85508 0.85508,-0.85508s0.85508,0.38479 0.85508,0.85508l0,3.89489c0,0.47029 -0.38478,0.85508 -0.85508,0.85508z" fill="#010101" id="svg_55"/>
     <path stroke="null" d="m4442.119357,3059.795602l-41.07375,0c-1.38523,0 -2.50966,-1.12443 -2.50966,-2.50966l0,-26.30653c0,-1.38523 1.12443,-2.50966 2.50966,-2.50966l41.06947,0c1.38523,0 2.50966,1.12443 2.50966,2.50966l0,26.30653a2.50453,2.50453 0 0 1 -2.50538,2.50966z" fill="#F95D77" id="svg_54"/>
     <path stroke="null" d="m4434.577547,3028.465482s5.32287,-0.87219 5.32287,4.61315l0,23.33085s0.81661,3.38184 -3.19372,3.38184c3.6854,0.54725 6.96035,0.79095 6.96035,-3.38184s-0.65413,-25.95167 -0.65413,-25.95167s0.64986,-2.75335 -8.43537,-1.99233z" fill="#FB3E57" id="svg_53"/>
     <path stroke="null" d="m4426.227697,3067.546892l0,2.00516c0,1.38096 -1.11588,2.49684 -2.49683,2.49684l-8.51659,0c-1.38096,0 -2.49684,-1.11588 -2.49684,-2.49684l0,-2.00516l-26.69131,0c0,4.33953 3.51865,7.85818 7.85818,7.85818l55.61438,0c4.33953,0 7.85819,-3.51865 7.85819,-7.85818l-31.12918,0z" fill="#FC6744" id="svg_52"/>
     <path stroke="null" d="m4425.304217,3072.048892l-8.51232,0c-1.38096,0 -2.49683,-1.11588 -2.49683,-2.49684l0,-2.00516l13.51025,0l0,2.00516a2.50068,2.50068 0 0 1 -2.5011,2.49684z" fill="#FBB768" id="svg_51"/>
     <path stroke="null" d="m4449.721017,3073.113462l-58.94492,0s-1.32537,0.20094 -2.63365,-0.21377c1.43654,1.53914 3.4759,2.50538 5.74614,2.50538l55.61438,0c4.33953,0 7.85818,-3.51865 7.85818,-7.85818l-4.80127,0s0.43609,5.56657 -2.83886,5.56657z" fill="#E54F2C" id="svg_50"/>
     <path stroke="null" d="m4440.772607,3060.650672l-42.89935,0c-1.85552,0 -3.36474,-1.50921 -3.36474,-3.36473l0,-26.30653c0,-1.85552 1.50922,-3.36474 3.36474,-3.36474l42.89935,0c1.85552,0 3.36473,1.50922 3.36473,3.36474l0,26.30653c0,1.85552 -1.50921,3.36473 -3.36473,3.36473zm-42.89935,-31.33011a1.65886,1.65886 0 0 0 -1.65458,1.65458l0,26.30652c0,0.91494 0.74392,1.65458 1.65458,1.65458l42.89935,0a1.65886,1.65886 0 0 0 1.65458,-1.65458l0,-26.30225c0,-0.91494 -0.74392,-1.65458 -1.65458,-1.65458l-42.89935,0l0,-0.00427zm51.62971,46.93959l-60.36435,0c-4.80555,0 -8.71326,-3.90771 -8.71326,-8.71326c0,-0.47029 0.38479,-0.85508 0.85508,-0.85508l76.08499,0c0.47029,0 0.85508,0.38479 0.85508,0.85508c0,4.80555 -3.91199,8.71326 -8.71754,8.71326zm-67.31615,-7.85818c0.42327,3.4588 3.38184,6.14802 6.9518,6.14802l60.36435,0c3.57423,0 6.52853,-2.68922 6.95179,-6.14802l-74.26794,0z" fill="#010101" id="svg_49"/>
     <path stroke="null" d="m4423.730867,3072.903972l-8.51659,0c-1.84698,0 -3.35192,-1.50494 -3.35192,-3.35192l0,-2.00516c0,-0.47029 0.38479,-0.85508 0.85508,-0.85508l13.51026,0c0.4703,0 0.85508,0.38479 0.85508,0.85508l0,2.00516c0,1.84698 -1.50494,3.35192 -3.35191,3.35192zm-10.15835,-4.502l0,1.15008c0,0.90639 0.73537,1.64176 1.64176,1.64176l8.51231,0c0.90639,0 1.64176,-0.73537 1.64176,-1.64176l0,-1.15008l-11.79583,0z" fill="#010101" id="svg_48"/>
     <path stroke="null" d="m4410.793507,3045.738082c-0.26507,0 -0.52587,-0.12398 -0.69261,-0.35485c-0.2779,-0.38479 -0.18812,-0.91921 0.19239,-1.19284l7.99927,-5.77179a0.8538,0.8538 0 1 1 1.00045,1.38523l-7.99927,5.77179c-0.15392,0.10689 -0.32921,0.16246 -0.50023,0.16246zm0,6.83637a0.85508,0.85508 0 0 1 -0.69261,-0.35059a0.85936,0.85936 0 0 1 0.18384,-1.19711l16.02419,-11.74879a0.85936,0.85936 0 0 1 1.19711,0.18384c0.27791,0.38051 0.19667,0.91494 -0.18384,1.19711l-16.02419,11.7488c-0.15391,0.11116 -0.32921,0.16674 -0.5045,0.16674zm9.76929,-0.16674c-0.26508,0 -0.52587,-0.12399 -0.69262,-0.35486c-0.2779,-0.38479 -0.19239,-0.91921 0.1924,-1.19284l7.99499,-5.77606c0.38479,-0.2779 0.91921,-0.19239 1.19284,0.19239c0.2779,0.38479 0.19239,0.91921 -0.1924,1.19284l-7.99499,5.77606c-0.14964,0.11116 -0.32493,0.16247 -0.50022,0.16247z" fill="#F7F8F8" id="svg_47"/>
     <path stroke="null" d="m4401.875027,3071.702582l-11.0177,0c-0.47029,0 -0.85508,-0.38479 -0.85508,-0.85508s0.38479,-0.85508 0.85508,-0.85508l11.0177,0c0.4703,0 0.85508,0.38479 0.85508,0.85508s-0.38478,0.85508 -0.85508,0.85508zm5.95563,0l-2.70205,0c-0.47029,0 -0.85508,-0.38479 -0.85508,-0.85508s0.38479,-0.85508 0.85508,-0.85508l2.70205,0a0.85508,0.85508 0 1 1 0,1.71016zm1.71016,-45.43466l-2.6935,0c-0.47029,0 -0.85508,-0.38478 -0.85508,-0.85508s0.38479,-0.85508 0.85508,-0.85508l2.6935,0a0.85508,0.85508 0 1 1 0,1.71016zm-15.79759,3.18945c-0.4703,0 -0.85508,-0.38479 -0.85508,-0.85508l0,-1.92393c0,-1.17146 0.95341,-2.12487 2.12487,-2.12487l8.93558,0c0.4703,0 0.85508,0.38478 0.85508,0.85508s-0.38478,0.85508 -0.85508,0.85508l-8.93558,0a0.41471,0.41471 0 0 0 -0.41471,0.41471l0,1.92393a0.85508,0.85508 0 0 1 -0.85508,0.85508z" fill="#FFFFFF" id="svg_46"/>
    </g>
    <defs stroke="null" transform="translate(-1.6784082651138306,1.757299780845642) translate(0,17.572998046875) translate(-88.95563507080078,-172.2153778076172) translate(-872.5679321289062,-601.8807983398438) translate(5197.52490234375,0) translate(0,3584.5) ">
     <style stroke="null" type="text/css"/>
    </defs>
    <g stroke="null" id="svg_33">
     <path stroke="null" d="m4348.251347,3070.237662l0,13.8112c0,1.48861 1.20342,2.69517 2.68577,2.69517l3.40344,0c1.31625,0 2.43819,-0.95584 2.6513,-2.25956l0.04701,-0.28205c0.2131,-1.30371 1.33505,-2.25956 2.6513,-2.25956l3.26241,0c1.31625,0 2.43819,0.95585 2.6513,2.25956l0.04701,0.28205c0.21311,1.30372 1.33505,2.25956 2.6513,2.25956l3.40344,0c1.48234,0 2.68577,-1.20656 2.68577,-2.69517l0,-13.8112c0,-1.48861 -1.20343,-2.69517 -2.68577,-2.69517l-20.76538,0c-1.48548,0 -2.6889,1.20656 -2.6889,2.69517z" fill="#FF556E" id="svg_44"/>
     <path stroke="null" d="m4348.251347,3070.237662l0,0.59858c0.51083,-1.15955 1.17522,-2.23449 1.97124,-3.1966c-1.13448,0.31652 -1.97124,1.36012 -1.97124,2.59802zm26.13692,0c0,-1.48861 -1.20343,-2.69517 -2.68578,-2.69517l-0.45441,0c1.73932,2.07152 2.87694,4.66327 3.14019,7.51201l0,-4.81684zm-26.13692,11.59552l0,2.21568c0,1.48861 1.20342,2.69517 2.68577,2.69517l0.97152,0c-1.5607,-1.33191 -2.8174,-3.00856 -3.65729,-4.91085zm26.13692,2.21568l0,-6.43081c-0.33847,3.64789 -2.10913,6.87896 -4.7479,9.12598l2.06212,0c1.48548,0 2.68578,-1.20656 2.68578,-2.69517z" fill="#FF556E" id="svg_43"/>
     <path stroke="null" d="m4348.395507,3075.690692c0,-3.16213 1.24417,-6.0328 3.26555,-8.15134l-0.72081,0c-0.24758,0 -0.48889,0.03448 -0.71766,0.09716c-0.79602,0.96524 -1.46041,2.04018 -1.97124,3.1966l0,10.9938c0.83989,1.90856 2.09659,3.58521 3.66042,4.91712l2.43192,0c0.39488,0 0.77408,-0.08775 1.11255,-0.24444c-4.15872,-1.82394 -7.06073,-5.97639 -7.06073,-10.8089zm25.99276,1.92736l0,-2.56355c-0.26325,-2.8456 -1.40087,-5.44049 -3.14333,-7.51201l-2.51967,0c2.02451,2.11853 3.26868,4.9892 3.26868,8.1482c0,4.29661 -2.29403,8.05418 -5.72568,10.11944c0.49516,0.57664 1.2285,0.9339 2.03392,0.9339l1.34132,0c2.63563,-2.24702 4.40629,-5.47809 4.74476,-9.12598z" fill="#FF5F71" id="svg_42"/>
     <path stroke="null" d="m4349.686677,3075.048232c0,-2.99916 1.32879,-5.68807 3.43165,-7.50574l-1.45727,0c-2.02452,2.11853 -3.26555,4.9892 -3.26555,8.1482c0,4.83251 2.90515,8.98495 7.06073,10.8089c0.75527,-0.34473 1.32878,-1.0342 1.51055,-1.88349c-4.19632,-1.15642 -7.2801,-5.00174 -7.2801,-9.56787l-0.00001,0zm22.30727,0.64246c0,-3.16213 -1.24417,-6.03281 -3.26555,-8.15134l-2.61996,0c2.10286,1.82081 3.43165,4.50972 3.43165,7.50575c0,3.3909 -1.70172,6.38693 -4.29661,8.1764c0.17863,0.29146 0.30712,0.62052 0.36353,0.97779l0.04701,0.28205c0.08148,0.50456 0.30399,0.95898 0.61739,1.32565c3.42537,-2.05899 5.72254,-5.8197 5.72254,-10.1163z" fill="#FF6974" id="svg_41"/>
     <path stroke="null" d="m4369.536947,3075.048232c0,-2.99916 -1.32878,-5.68807 -3.43164,-7.50574l-2.86441,0c2.30344,1.41653 3.84219,3.96128 3.84219,6.86329c0,3.44731 -2.16867,6.39007 -5.21485,7.53708l1.08434,0c0.95585,0 1.81141,0.50457 2.28776,1.28178c2.59489,-1.78947 4.29661,-4.78237 4.29661,-8.17641zm-18.55909,-0.64245c0,-2.90201 1.53562,-5.44676 3.84219,-6.86329l-1.70172,0c-2.10286,1.82081 -3.43164,4.50971 -3.43164,7.50574c0,4.56613 3.08378,8.41145 7.28323,9.56787c0.00941,-0.04388 0.01881,-0.08775 0.02507,-0.13476l0.04701,-0.28205c0.12223,-0.75214 0.54844,-1.3852 1.13762,-1.78947c-4.04903,-0.42308 -7.20176,-3.84533 -7.20176,-8.00404z" fill="#FF7377" id="svg_40"/>
     <path stroke="null" d="m4367.083087,3074.405782c0,-2.90201 -1.53562,-5.44676 -3.84219,-6.86329l-8.42398,0c-2.30344,1.41653 -3.84219,3.96128 -3.84219,6.86329c0,4.15872 3.15272,7.58096 7.19862,8.00717c0.43248,-0.29772 0.95585,-0.47009 1.51368,-0.47009l2.17808,0c3.04931,-1.14701 5.21798,-4.08663 5.21798,-7.53708zm-8.63709,5.53764c-3.41284,0 -6.1801,-2.76725 -6.1801,-6.18009s2.76726,-6.1801 6.1801,-6.1801s6.1801,2.76725 6.1801,6.1801s-2.76726,6.18009 -6.1801,6.18009z" fill="#FF7E7A" id="svg_39"/>
     <path stroke="null" d="m4358.445997,3067.586362c-3.41284,0 -6.1801,2.76726 -6.1801,6.1801s2.76726,6.17696 6.1801,6.17696s6.1801,-2.76725 6.1801,-6.1801s-2.76726,-6.17696 -6.1801,-6.17696zm-0.57978,9.84052c-2.37864,0 -4.30601,-1.92736 -4.30601,-4.30601s1.92737,-4.30601 4.30601,-4.30601s4.30601,1.92736 4.30601,4.30601s-1.93049,4.30601 -4.30601,4.30601z" fill="#FF887D" id="svg_38"/>
     <path stroke="null" d="m4357.866217,3073.120872m-4.30601,0a4.30601,4.30601 0 1 0 8.61203,0a4.30601,4.30601 0 1 0 -8.61203,0z" fill="#FF9280" id="svg_37"/>
     <path stroke="null" d="m4371.702487,3068.106592c1.16896,0 2.12167,0.95585 2.12167,2.13107l0,13.8112c0,1.17522 -0.95271,2.13107 -2.12167,2.13107l-3.4003,0c-0.50143,0 -0.99032,-0.17864 -1.37266,-0.5077a2.13627,2.13627 0 0 1 -0.7208,-1.27864l-0.04701,-0.28205c-0.26012,-1.58263 -1.6077,-2.73278 -3.20914,-2.73278l-3.26241,0c-1.60144,0 -2.94903,1.15015 -3.20914,2.73278l-0.04701,0.28205c-0.08148,0.49829 -0.33846,0.95271 -0.7208,1.27864c-0.38234,0.32593 -0.87123,0.5077 -1.37266,0.5077l-3.40031,0c-1.16895,0 -2.12166,-0.95585 -2.12166,-2.13107l0,-13.8112c0,-1.17522 0.95271,-2.13107 2.12166,-2.13107l20.76224,0m0,-0.5641l-20.76224,0c-1.48234,0 -2.68577,1.20656 -2.68577,2.69517l0,13.8112c0,1.48861 1.20343,2.69517 2.68577,2.69517l3.40344,0c1.31625,0 2.4382,-0.95584 2.6513,-2.25956l0.04701,-0.28205c0.21311,-1.30371 1.33505,-2.25956 2.6513,-2.25956l3.26241,0c1.31625,0 2.4382,0.95585 2.6513,2.25956l0.04701,0.28205c0.21311,1.30372 1.33505,2.25956 2.6513,2.25956l3.40344,0c1.48235,0 2.68577,-1.20656 2.68577,-2.69517l0,-13.8112c-0.00626,-1.48861 -1.20656,-2.69517 -2.69204,-2.69517z" fill="#EF4868" id="svg_36"/>
     <path stroke="null" d="m4369.320707,3076.881582c-0.88376,0 -1.60143,-0.71767 -1.60143,-1.60144s0.71767,-1.60143 1.60143,-1.60143c0.88377,0 1.60144,0.71767 1.60144,1.60143c0,0.8869 -0.71767,1.60144 -1.60144,1.60144zm-4.26527,0c-0.88376,0 -1.60143,-0.71767 -1.60143,-1.60144s0.71767,-1.60143 1.60143,-1.60143c0.88377,0 1.60144,0.71767 1.60144,1.60143s-0.71767,1.60144 -1.60144,1.60144zm-6.4026,0l-1.29118,0c-0.16923,0 -0.31025,0.13789 -0.31025,0.31026l0,1.29117c0,0.29459 -0.23818,0.53277 -0.53277,0.53277l-2.1342,0c-0.29459,0 -0.53277,-0.23818 -0.53277,-0.53277l0,-1.29117c0,-0.16924 -0.13789,-0.31026 -0.31026,-0.31026l-1.29118,0c-0.29458,0 -0.53276,-0.23818 -0.53276,-0.53277l0,-2.1342c0,-0.29459 0.23818,-0.53277 0.53276,-0.53277l1.29118,0c0.16923,0 0.31026,-0.13789 0.31026,-0.31026l0,-1.29117c0,-0.29459 0.23818,-0.53277 0.53277,-0.53277l2.1342,0c0.29459,0 0.53277,0.23818 0.53277,0.53277l0,1.29117c0,0.16924 0.13789,0.31026 0.31025,0.31026l1.29118,0c0.29459,0 0.53277,0.23818 0.53277,0.53277l0,2.1342c0.00313,0.29459 -0.23818,0.53277 -0.53277,0.53277z" fill="#FFC7C7" id="svg_35"/>
     <path stroke="null" d="m4356.900977,3069.993222l-3.89234,0c-0.31025,0 -0.5641,-0.25385 -0.5641,-0.56411s0.25385,-0.56411 0.5641,-0.56411l3.8892,0c0.31026,0 0.56411,0.25385 0.56411,0.56411s-0.25071,0.56411 -0.56097,0.56411zm-5.76956,0l-0.32906,0c-0.31026,0 -0.5641,-0.25385 -0.5641,-0.56411s0.25384,-0.56411 0.5641,-0.56411l0.32906,0c0.31026,0 0.56411,0.25385 0.56411,0.56411s-0.25385,0.56411 -0.56411,0.56411z" fill="#FFFFFF" id="svg_34"/>
    </g>
   </g>
  </g>
 </g>
</svg>