<?xml version="1.0" standalone="no"?><!DOCTYPE svg PUBLIC "-//W3C//DTD SVG 1.1//EN" "http://www.w3.org/Graphics/SVG/1.1/DTD/svg11.dtd"><svg t="1621599741159" class="icon" viewBox="0 0 1024 1024" version="1.1" xmlns="http://www.w3.org/2000/svg" p-id="5966" xmlns:xlink="http://www.w3.org/1999/xlink" width="200" height="200"><defs><style type="text/css"></style></defs><path d="M277.5 878.6h469c7.8 0 14.2-5.6 14.2-12.5v-20c0-6.9-6.4-2.5-14.2-2.5h-469c-7.8 0-14.2-21.1-14.2 12.5v10c0 7 6.4 12.5 14.2 12.5z" fill="#3173E7" p-id="5967"></path><path d="M428.9 750.7h166.2v96.9H428.9z" fill="#5EADEF" p-id="5968"></path><path d="M428.9 750.7h166.2V768H428.9z" fill="#509BED" p-id="5969"></path><path d="M88.2 145.4h847.5c13.3 0 24.2 11.4 24.2 25.4v554.6c0 14-10.9 25.4-24.2 25.4H88.2c-13.3 0-24.2-11.4-24.2-25.4V170.7c0-13.9 10.9-25.3 24.2-25.3z" fill="#5EADEF" p-id="5970"></path><path d="M88.2 145.4h847.5c13.3 0 24.2 11.4 24.2 25.4v482c0 14-10.9 25.4-24.2 25.4H88.2c-13.3 0-24.2-11.4-24.2-25.4v-482c0-14 10.9-25.4 24.2-25.4z" fill="#3173E7" p-id="5971"></path><path d="M935.8 145.4h-22.5c13.3 0 24.2 13 24.2 28.8v547.7c0 15.9-10.9 28.8-24.2 28.8h22.5c13.3 0 24.2-11 24.2-26.9l0.1-549.7c-0.1-15.8-11-28.7-24.3-28.7z" fill="#6F9DEE" p-id="5972"></path><path d="M937.5 678.1v43.8c0 15.9-10.9 28.8-24.2 28.8h22.5c5.5 0 10.5-1.9 14.6-5.2 5.8-4.7 9.6-12.4 9.6-21.7V678l-22.5 0.1z" fill="#8FC6F4" p-id="5973"></path><path d="M645 175.6H94.3v472.2h835.4V175.6z" fill="#E7F5FD" p-id="5974"></path><path d="M277.5 857h469c7.8 0 14.2-5.6 14.2-12.5v-10c0-6.9-6.4-12.5-14.2-12.5h-469c-7.8 0-14.2 5.6-14.2 12.5v10c0 6.9 6.4 12.5 14.2 12.5z" fill="#5EADEF" p-id="5975"></path><path d="M742.6 726.3h45.7c6.5 0 11.8-5.3 11.8-11.8v-1.9c0-6.5-5.3-11.8-11.8-11.8h-45.7c-6.5 0-11.8 5.3-11.8 11.8v1.9c0.1 6.5 5.3 11.8 11.8 11.8z" fill="#FCCA4C" p-id="5976"></path><path d="M854.7 726.3h45.7c6.5 0 11.8-5.3 11.8-11.8v-1.9c0-6.5-5.3-11.8-11.8-11.8h-45.7c-6.5 0-11.8 5.3-11.8 11.8v1.9c0 6.5 5.3 11.8 11.8 11.8z" fill="#E7F5FD" p-id="5977"></path><path d="M500 175.6L142.7 647.8h166.5l360.7-472.2zM882.1 175.6L524.8 647.8h166.5l238.4-312.1V175.6z" fill="#FAFDFF" p-id="5978"></path></svg>